<svg width="32" height="32" viewBox="0 0 32 32" fill="none" xmlns="http://www.w3.org/2000/svg">
<path d="M16 23.15C15.7333 23.15 15.4833 23.1087 15.25 23.026C15.0167 22.9433 14.8 22.8013 14.6 22.6L7.4 15.4C7 15 6.808 14.5333 6.824 14C6.84 13.4667 7.032 13 7.4 12.6C7.8 12.2 8.27533 11.992 8.826 11.976C9.37667 11.96 9.85133 12.1513 10.25 12.55L14 16.3V2.00001C14 1.43334 14.192 0.958674 14.576 0.576007C14.96 0.19334 15.4347 0.00134023 16 6.89654e-06C16.5653 -0.00132644 17.0407 0.190674 17.426 0.576007C17.8113 0.96134 18.0027 1.43601 18 2.00001V16.3L21.75 12.55C22.15 12.15 22.6253 11.958 23.176 11.974C23.7267 11.99 24.2013 12.1987 24.6 12.6C24.9667 13 25.1587 13.4667 25.176 14C25.1933 14.5333 25.0013 15 24.6 15.4L17.4 22.6C17.2 22.8 16.9833 22.942 16.75 23.026C16.5167 23.11 16.2667 23.1513 16 23.15ZM4 32C2.9 32 1.95867 31.6087 1.176 30.826C0.393333 30.0433 0.00133333 29.1013 0 28V24C0 23.4333 0.192 22.9587 0.576 22.576C0.96 22.1933 1.43467 22.0013 2 22C2.56533 21.9987 3.04067 22.1907 3.426 22.576C3.81133 22.9613 4.00267 23.436 4 24V28H28V24C28 23.4333 28.192 22.9587 28.576 22.576C28.96 22.1933 29.4347 22.0013 30 22C30.5653 21.9987 31.0407 22.1907 31.426 22.576C31.8113 22.9613 32.0027 23.436 32 24V28C32 29.1 31.6087 30.042 30.826 30.826C30.0433 31.61 29.1013 32.0013 28 32H4Z" fill="#0000FF" fill-opacity="0.5"/>
</svg>
