<svg width="44" height="40" viewBox="0 0 44 40" fill="none" xmlns="http://www.w3.org/2000/svg">
<path d="M30 38V34C30 31.8783 29.1571 29.8434 27.6569 28.3432C26.1566 26.8429 24.1217 26 22 26H10C7.87827 26 5.84344 26.8429 4.34315 28.3432C2.84285 29.8434 2 31.8783 2 34V38M30 2.25601C31.7155 2.70075 33.2348 3.70254 34.3194 5.10414C35.4039 6.50573 35.9924 8.22779 35.9924 10C35.9924 11.7722 35.4039 13.4943 34.3194 14.8959C33.2348 16.2975 31.7155 17.2993 30 17.744M42 38V34C41.9987 32.2275 41.4087 30.5056 40.3227 29.1046C39.2368 27.7037 37.7163 26.7031 36 26.26" stroke="#0000FF" stroke-opacity="0.5" stroke-width="4" stroke-linecap="round" stroke-linejoin="round"/>
<path d="M16 18C20.4183 18 24 14.4183 24 10C24 5.58172 20.4183 2 16 2C11.5817 2 8 5.58172 8 10C8 14.4183 11.5817 18 16 18Z" stroke="#0000FF" stroke-opacity="0.5" stroke-width="4" stroke-linecap="round" stroke-linejoin="round"/>
</svg>
