<svg width="36" height="44" viewBox="0 0 36 44" fill="none" xmlns="http://www.w3.org/2000/svg">
<path d="M18 6.19399L8.10001 16.094C6.14222 18.052 4.80899 20.5465 4.26891 23.2622C3.72883 25.9779 4.00616 28.7928 5.06583 31.3509C6.1255 33.909 7.91992 36.0954 10.2222 37.6337C12.5244 39.1719 15.2311 39.993 18 39.993C20.7689 39.993 23.4756 39.1719 25.7778 37.6337C28.0801 36.0954 29.8745 33.909 30.9342 31.3509C31.9939 28.7928 32.2712 25.9779 31.7311 23.2622C31.191 20.5465 29.8578 18.052 27.9 16.094L18 6.19399ZM18 0.539993L30.728 13.268C33.2453 15.7853 34.9596 18.9926 35.6542 22.4843C36.3487 25.9759 35.9922 29.5951 34.6298 32.8842C33.2674 36.1732 30.9603 38.9844 28.0002 40.9623C25.0402 42.9402 21.5601 43.9958 18 43.9958C14.44 43.9958 10.9598 42.9402 7.99977 40.9623C5.03969 38.9844 2.73258 36.1732 1.3702 32.8842C0.00781369 29.5951 -0.348659 25.9759 0.345857 22.4843C1.04037 18.9926 2.75469 15.7853 5.27201 13.268L18 0.539993Z" fill="white" fill-opacity="0.8"/>
</svg>
