<svg width="40" height="40" viewBox="0 0 40 40" fill="none" xmlns="http://www.w3.org/2000/svg">
<path fill-rule="evenodd" clip-rule="evenodd" d="M21.188 38.516L21.164 38.52L21.022 38.59L20.982 38.598L20.954 38.59L20.812 38.518C20.7907 38.5127 20.7747 38.5167 20.764 38.53L20.756 38.55L20.722 39.406L20.732 39.446L20.752 39.472L20.96 39.62L20.99 39.628L21.014 39.62L21.222 39.472L21.246 39.44L21.254 39.406L21.22 38.552C21.2147 38.5307 21.204 38.5187 21.188 38.516ZM21.716 38.29L21.688 38.294L21.32 38.48L21.3 38.5L21.294 38.522L21.33 39.382L21.34 39.406L21.356 39.422L21.758 39.606C21.7833 39.6127 21.8027 39.6073 21.816 39.59L21.824 39.562L21.756 38.334C21.7493 38.3087 21.736 38.294 21.716 38.29ZM20.286 38.294C20.2772 38.2887 20.2667 38.2869 20.2566 38.2892C20.2465 38.2914 20.2377 38.2974 20.232 38.306L20.22 38.334L20.152 39.562C20.1533 39.586 20.1647 39.602 20.186 39.61L20.216 39.606L20.618 39.42L20.638 39.404L20.644 39.382L20.68 38.522L20.674 38.498L20.654 38.478L20.286 38.294Z" fill="white" fill-opacity="0.8"/>
<path fill-rule="evenodd" clip-rule="evenodd" d="M24 0C25.5913 0 27.1174 0.632141 28.2426 1.75736C29.3679 2.88258 30 4.4087 30 6H36C37.0609 6 38.0783 6.42143 38.8284 7.17157C39.5786 7.92172 40 8.93913 40 10V30C40 31.0609 39.5786 32.0783 38.8284 32.8284C38.0783 33.5786 37.0609 34 36 34H4C2.93913 34 1.92172 33.5786 1.17157 32.8284C0.421427 32.0783 0 31.0609 0 30V10C0 8.93913 0.421427 7.92172 1.17157 7.17157C1.92172 6.42143 2.93913 6 4 6H10C10 4.4087 10.6321 2.88258 11.7574 1.75736C12.8826 0.632141 14.4087 0 16 0H24ZM26 10H14V30H26V10ZM36 10H30V30H36V10ZM10 10H4V30H10V10ZM24 4H16C15.5101 4.00006 15.0373 4.17991 14.6713 4.50543C14.3052 4.83095 14.0713 5.2795 14.014 5.766L14 6H26C25.9999 5.51013 25.8201 5.03733 25.4946 4.67126C25.1691 4.30519 24.7205 4.07131 24.234 4.014L24 4Z" fill="white" fill-opacity="0.8"/>
</svg>
