<svg width="42" height="42" viewBox="0 0 42 42" fill="none" xmlns="http://www.w3.org/2000/svg">
<path d="M7.57143 2V30.875M7.57143 36.125V44M35.4286 2V30.875M35.4286 36.125V44M21.5 15.125V44M21.5 2V9.875M2 33.5C2 32.8038 2.29349 32.1361 2.81592 31.6438C3.33834 31.1516 4.0469 30.875 4.78571 30.875H10.3571C11.096 30.875 11.8045 31.1516 12.3269 31.6438C12.8494 32.1361 13.1429 32.8038 13.1429 33.5C13.1429 34.1962 12.8494 34.8639 12.3269 35.3562C11.8045 35.8484 11.096 36.125 10.3571 36.125H4.78571C4.0469 36.125 3.33834 35.8484 2.81592 35.3562C2.29349 34.8639 2 34.1962 2 33.5ZM29.8571 33.5C29.8571 32.8038 30.1506 32.1361 30.6731 31.6438C31.1955 31.1516 31.904 30.875 32.6429 30.875H38.2143C38.9531 30.875 39.6617 31.1516 40.1841 31.6438C40.7065 32.1361 41 32.8038 41 33.5C41 34.1962 40.7065 34.8639 40.1841 35.3562C39.6617 35.8484 38.9531 36.125 38.2143 36.125H32.6429C31.904 36.125 31.1955 35.8484 30.6731 35.3562C30.1506 34.8639 29.8571 34.1962 29.8571 33.5ZM15.9286 12.5C15.9286 11.8038 16.2221 11.1361 16.7445 10.6438C17.2669 10.1516 17.9755 9.875 18.7143 9.875H24.2857C25.0245 9.875 25.7331 10.1516 26.2555 10.6438C26.7779 11.1361 27.0714 11.8038 27.0714 12.5C27.0714 13.1962 26.7779 13.8639 26.2555 14.3562C25.7331 14.8484 25.0245 15.125 24.2857 15.125H18.7143C17.9755 15.125 17.2669 14.8484 16.7445 14.3562C16.2221 13.8639 15.9286 13.1962 15.9286 12.5Z" stroke="#808080" stroke-opacity="0.6" stroke-width="2.28571" stroke-linecap="round" stroke-linejoin="round"/>
</svg>
