<svg width="65" height="63" viewBox="0 0 65 63" fill="none" xmlns="http://www.w3.org/2000/svg">
<path d="M23.6531 17.3607C23.132 17.123 22.5659 17 21.9931 17C21.4203 17 20.8542 17.123 20.3331 17.3607L3.19309 25.1607C2.83819 25.3172 2.53645 25.5735 2.32462 25.8984C2.11278 26.2233 2 26.6028 2 26.9907C2 27.3786 2.11278 27.7581 2.32462 28.083C2.53645 28.4079 2.83819 28.6642 3.19309 28.8207L20.3531 36.6407C20.8742 36.8784 21.4403 37.0014 22.0131 37.0014C22.5859 37.0014 23.152 36.8784 23.6731 36.6407L40.8331 28.8407C41.188 28.6842 41.4897 28.4279 41.7016 28.103C41.9134 27.7781 42.0262 27.3986 42.0262 27.0107C42.0262 26.6228 41.9134 26.2433 41.7016 25.9184C41.4897 25.5935 41.188 25.3372 40.8331 25.1807L23.6531 17.3607Z" stroke="white" stroke-width="4" stroke-linecap="round" stroke-linejoin="round"/>
<path d="M2.00001 37.0014C1.99906 37.384 2.10784 37.7587 2.31344 38.0813C2.51904 38.4039 2.81285 38.6608 3.16001 38.8214L20.36 46.6414C20.8784 46.8762 21.4409 46.9976 22.01 46.9976C22.5791 46.9976 23.1416 46.8762 23.66 46.6414L40.82 38.8414C41.174 38.6823 41.4741 38.4236 41.6836 38.0969C41.8931 37.7702 42.0031 37.3896 42 37.0014" stroke="white" stroke-width="4" stroke-linecap="round" stroke-linejoin="round"/>
<path d="M2.00001 46.9976C1.99906 47.3801 2.10784 47.7549 2.31344 48.0775C2.51904 48.4001 2.81285 48.6569 3.16001 48.8176L20.36 56.6376C20.8784 56.8723 21.4409 56.9938 22.01 56.9938C22.5791 56.9938 23.1416 56.8723 23.66 56.6376L40.82 48.8376C41.174 48.6785 41.4741 48.4198 41.6836 48.0931C41.8931 47.7663 42.0031 47.3857 42 46.9976" stroke="white" stroke-width="4" stroke-linecap="round" stroke-linejoin="round"/>
<path d="M53.083 0.5C53.3703 0.5 53.6464 0.614219 53.8496 0.817383C54.0526 1.02045 54.1669 1.29588 54.167 1.58301V10H62.583C62.8703 10 63.1464 10.1142 63.3496 10.3174C63.5526 10.5205 63.6669 10.7959 63.667 11.083C63.667 11.3703 63.5528 11.6464 63.3496 11.8496C63.1464 12.0528 62.8703 12.167 62.583 12.167H54.167V20.583C54.167 20.8703 54.0528 21.1464 53.8496 21.3496C53.6464 21.5528 53.3703 21.667 53.083 21.667C52.7959 21.6669 52.5205 21.5526 52.3174 21.3496C52.1142 21.1464 52 20.8703 52 20.583V12.167H43.583C43.2959 12.1669 43.0205 12.0526 42.8174 11.8496C42.6142 11.6464 42.5 11.3703 42.5 11.083C42.5001 10.7958 42.6143 10.5205 42.8174 10.3174C43.0205 10.1143 43.2958 10.0001 43.583 10H52V1.58301C52.0001 1.29581 52.1143 1.02047 52.3174 0.817383C52.5205 0.614295 52.7958 0.500086 53.083 0.5Z" fill="white" stroke="white"/>
</svg>
