<svg width="43" height="43" viewBox="0 0 43 43" fill="none" xmlns="http://www.w3.org/2000/svg">
<path d="M28.5 21C28.499 22.1047 28.2539 23.1956 27.7824 24.1946C27.3108 25.1936 26.6243 26.0761 25.7721 26.779C24.9198 27.482 23.9228 27.9879 22.8523 28.2608C21.7818 28.5336 20.6643 28.5666 19.5795 28.3574C18.4948 28.1481 17.4697 27.7019 16.5775 27.0504C15.6852 26.399 14.9479 25.5585 14.4183 24.589C13.8886 23.6196 13.5796 22.5451 13.5135 21.4423C13.4473 20.3396 13.6256 19.2358 14.0355 18.21C14.2861 18.5702 14.6127 18.871 14.9923 19.0913C15.3718 19.3115 15.7951 19.4458 16.2321 19.4847C16.6692 19.5236 17.1095 19.4661 17.522 19.3163C17.9345 19.1666 18.309 18.9281 18.6193 18.6178C18.9296 18.3075 19.1681 17.9329 19.3178 17.5205C19.4676 17.108 19.5251 16.6677 19.4862 16.2306C19.4473 15.7935 19.313 15.3703 19.0928 14.9908C18.8725 14.6112 18.5717 14.2846 18.2115 14.034C19.3498 13.5781 20.5826 13.4082 21.8018 13.5393C23.021 13.6704 24.1895 14.0984 25.2049 14.7859C26.2202 15.4734 27.0516 16.3994 27.6261 17.4827C28.2005 18.5661 28.5006 19.7738 28.5 21Z" fill="#0000FF" fill-opacity="0.5"/>
<path d="M20.976 34.4535C24.5505 34.4535 27.9785 33.0336 30.506 30.506C33.0336 27.9785 34.4535 24.5505 34.4535 20.976C34.4535 17.4016 33.0336 13.9735 30.506 11.446C27.9785 8.91845 24.5505 7.4985 20.976 7.4985C17.4016 7.4985 13.9735 8.91845 11.446 11.446C8.91845 13.9735 7.4985 17.4016 7.4985 20.976C7.4985 24.5505 8.91845 27.9785 11.446 30.506C13.9735 33.0336 17.4016 34.4535 20.976 34.4535ZM20.976 31.4535C19.6001 31.4535 18.2376 31.1825 16.9664 30.656C15.6952 30.1294 14.5402 29.3576 13.5673 28.3847C12.5944 27.4118 11.8226 26.2568 11.2961 24.9856C10.7695 23.7144 10.4985 22.3519 10.4985 20.976C10.4985 19.6001 10.7695 18.2376 11.2961 16.9664C11.8226 15.6952 12.5944 14.5402 13.5673 13.5673C14.5402 12.5944 15.6952 11.8226 16.9664 11.2961C18.2376 10.7695 19.6001 10.4985 20.976 10.4985C23.7548 10.4985 26.4198 11.6024 28.3847 13.5673C30.3496 15.5322 31.4535 18.1972 31.4535 20.976C31.4535 23.7548 30.3496 26.4198 28.3847 28.3847C26.4198 30.3496 23.7548 31.4535 20.976 31.4535Z" fill="#0000FF" fill-opacity="0.5"/>
<path d="M21.234 42.4695C32.9625 42.4695 42.4695 32.9625 42.4695 21.234C42.4695 9.507 32.9625 0 21.234 0C9.507 0 0 9.507 0 21.234C0 32.961 9.507 42.4695 21.234 42.4695ZM21.234 39.4695C11.1645 39.4695 3 31.305 3 21.234C3 11.1645 11.1645 3 21.234 3C31.3035 3 39.4695 11.1645 39.4695 21.234C39.4695 31.3035 31.305 39.4695 21.234 39.4695Z" fill="#0000FF" fill-opacity="0.5"/>
</svg>
