<svg width="40" height="40" viewBox="0 0 40 40" fill="none" xmlns="http://www.w3.org/2000/svg">
<path d="M14 0.916V5.164C10.5618 6.56009 7.7156 9.10741 5.94812 12.3702C4.18064 15.633 3.60176 19.4086 4.31051 23.0511C5.01925 26.6936 6.97158 29.9766 9.83353 32.3387C12.6955 34.7007 16.2892 35.9949 20 36C23.1881 36.0011 26.3038 35.0498 28.9476 33.2681C31.5913 31.4863 33.6425 28.9554 34.838 26H39.084C36.536 34.114 28.956 40 20 40C8.954 40 0 31.046 0 20C0 11.044 5.886 3.464 14 0.916ZM20 0C31.046 0 40 8.954 40 20C40 20.676 39.9667 21.3427 39.9 22H18V0.0999999C18.6573 0.0333332 19.324 0 20 0ZM22 4.124V18H35.876C35.4308 14.4752 33.8257 11.1987 31.3135 8.68647C28.8013 6.17427 25.5248 4.56917 22 4.124Z" fill="white" fill-opacity="0.8"/>
</svg>
