<svg width="36" height="36" viewBox="0 0 36 36" fill="none" xmlns="http://www.w3.org/2000/svg">
<path fill-rule="evenodd" clip-rule="evenodd" d="M16 28C17.5759 28 19.1363 27.6896 20.5922 27.0866C22.0481 26.4835 23.371 25.5996 24.4853 24.4853C25.5996 23.371 26.4835 22.0481 27.0866 20.5922C27.6896 19.1363 28 17.5759 28 16C28 14.4241 27.6896 12.8637 27.0866 11.4078C26.4835 9.95189 25.5996 8.62902 24.4853 7.51472C23.371 6.40042 22.0481 5.5165 20.5922 4.91345C19.1363 4.31039 17.5759 4 16 4C12.8174 4 9.76516 5.26428 7.51472 7.51472C5.26428 9.76516 4 12.8174 4 16C4 19.1826 5.26428 22.2348 7.51472 24.4853C9.76516 26.7357 12.8174 28 16 28ZM16 32C20.2435 32 24.3131 30.3143 27.3137 27.3137C30.3143 24.3131 32 20.2435 32 16C32 11.7565 30.3143 7.68687 27.3137 4.68629C24.3131 1.68571 20.2435 0 16 0C11.7565 0 7.68687 1.68571 4.68629 4.68629C1.68571 7.68687 0 11.7565 0 16C0 20.2435 1.68571 24.3131 4.68629 27.3137C7.68687 30.3143 11.7565 32 16 32Z" fill="white"/>
<path fill-rule="evenodd" clip-rule="evenodd" d="M24.64 24.58C25.0164 24.2064 25.5257 23.9975 26.0561 23.9994C26.5864 24.0013 27.0943 24.2137 27.468 24.59L35.418 32.59C35.7814 32.9682 35.9817 33.474 35.9757 33.9985C35.9697 34.5229 35.7579 35.0241 35.386 35.3939C35.0141 35.7637 34.5118 35.9726 33.9873 35.9756C33.4628 35.9787 32.9581 35.7755 32.582 35.41L24.632 27.41C24.2581 27.0339 24.0489 26.5247 24.0504 25.9943C24.0519 25.464 24.264 24.956 24.64 24.582V24.58Z" fill="white"/>
</svg>
