<svg width="54" height="54" viewBox="0 0 54 54" fill="none" xmlns="http://www.w3.org/2000/svg">
<path d="M22.2659 52.3125C24.9668 52.3125 27.1563 50.123 27.1563 47.4221C27.1563 44.7212 24.9668 42.5318 22.2659 42.5318C19.565 42.5318 17.3755 44.7212 17.3755 47.4221C17.3755 50.123 19.565 52.3125 22.2659 52.3125Z" stroke="white" stroke-width="3" stroke-linecap="round" stroke-linejoin="round"/>
<path d="M43.5725 52.3125C46.2734 52.3125 48.4629 50.123 48.4629 47.4221C48.4629 44.7212 46.2734 42.5318 43.5725 42.5318C40.8716 42.5318 38.6821 44.7212 38.6821 47.4221C38.6821 50.123 40.8716 52.3125 43.5725 52.3125Z" stroke="white" stroke-width="3" stroke-linecap="round" stroke-linejoin="round"/>
<path d="M10.9297 8.62687L16.7085 26.9234C17.5969 29.7351 18.0396 31.141 18.8935 32.1817C19.641 33.1017 20.6156 33.8119 21.7167 34.2517C22.9674 34.7491 24.4394 34.7491 27.3891 34.7491H38.4722C41.422 34.7491 42.894 34.7491 44.1418 34.2517C45.2458 33.8119 46.2175 33.1017 46.9679 32.1817C47.8189 31.141 48.2616 29.7351 49.1529 26.9234L50.3287 23.1974L51.0187 20.9951L51.9704 17.9764C52.31 16.8997 52.3912 15.7582 52.2074 14.6442C52.0236 13.5303 51.5799 12.4754 50.9125 11.5649C50.245 10.6544 49.3724 9.91389 48.3654 9.40345C47.3584 8.89302 46.2453 8.62697 45.1164 8.62687H10.9297ZM10.9297 8.62687L10.8981 8.5205C10.7767 8.11386 10.6425 7.71116 10.4956 7.313C9.91358 5.83968 8.92655 4.56111 7.64859 3.62502C6.37062 2.68894 4.85389 2.13354 3.27363 2.023C2.9775 2 2.65262 2 2 2" stroke="white" stroke-width="3" stroke-linecap="round" stroke-linejoin="round"/>
</svg>
