<svg width="40" height="44" viewBox="0 0 40 44" fill="none" xmlns="http://www.w3.org/2000/svg">
<path d="M16.536 40C16.8871 40.608 17.392 41.1129 18.0001 41.464C18.6081 41.815 19.2979 41.9998 20 41.9998C20.7021 41.9998 21.3919 41.815 21.9999 41.464C22.608 41.1129 23.1129 40.608 23.464 40M2.524 28.652C2.26273 28.9384 2.09031 29.2945 2.02771 29.677C1.96512 30.0596 2.01504 30.4521 2.17142 30.8068C2.32779 31.1615 2.58387 31.4631 2.90851 31.6749C3.23316 31.8868 3.61236 31.9997 4 32H36C36.3876 32.0001 36.7669 31.8876 37.0917 31.6762C37.4166 31.4648 37.673 31.1635 37.8298 30.809C37.9866 30.4546 38.037 30.0622 37.9749 29.6796C37.9128 29.297 37.7409 28.9407 37.48 28.654C34.82 25.912 32 22.998 32 14C32 10.8174 30.7357 7.76516 28.4853 5.51472C26.2349 3.26428 23.1826 2 20 2C16.8174 2 13.7652 3.26428 11.5147 5.51472C9.26429 7.76516 8 10.8174 8 14C8 22.998 5.178 25.912 2.524 28.652Z" stroke="white" stroke-width="4" stroke-linecap="round" stroke-linejoin="round"/>
</svg>
